<svg xmlns="http://www.w3.org/2000/svg" viewBox="0 0 1215.9407 389.2327"><title>Logo-Wite</title><path d="M219.5715,138.698c77.2341-4.448,103.518,27.497,103.518,27.497-22.6446-61.0595-86.13-73.5949-86.13-73.5949C37.6062,61.8682,0,0,0,0,45.6935,96.6437,142.3373,143.146,219.5715,138.698Z" transform="translate(0 0)" style="fill:#fff"/><path d="M233.32,196.1181c26.0818-4.448,39.4259-4.8523,39.4259-4.8523,49.9394-4.246,65.3053,3.0327,65.3053,3.0327-35.9887-39.628-84.3106-39.628-84.3106-39.628C104.529,160.9382,70.7643,125.3538,70.7643,125.3538,131.4194,214.5169,233.32,196.1181,233.32,196.1181Z" transform="translate(0 0)" style="fill:#fff"/><path d="M284.068,202.0033c-28.71,9.3-58.8354,12.5354-58.8354,12.5354-50.5459,4.8524-60.6551-2.2241-60.6551-2.2241,37.404,29.9233,75.8189,28.508,75.8189,28.508,16.9834-.2022,27.6992-5.2568,27.6992-5.2568,10.3113-2.6284,52.1634-20.8249,52.1634-20.8249,22.0379-8.4917,31.5406,1.2131,31.5406,1.2131C328.9528,188.0526,284.068,202.0033,284.068,202.0033Z" transform="translate(0 0)" style="fill:#fff"/><path d="M323.6965,222.1291s-7.7839,3.384-17.4609,7.4427a98.4054,98.4054,0,1,1-185.2184-47.335A157.0308,157.0308,0,0,1,95.2,161.5211a135.7154,135.7154,0,0,0-17.56,67.0594c0,73.8091,58.2953,133.6432,130.2059,133.6432S338.0511,302.39,338.0511,228.5805q0-4.9569-.3518-9.8238A49.6578,49.6578,0,0,0,323.6965,222.1291Z" transform="translate(0 0)" style="fill:#fff"/><path d="M127.1756,186.1079a91.3561,91.3561,0,1,0,172.0088,44.9658c-11.6684,4.8638-25.2112,10.31-30.4016,11.6332,0,0-1.2367.5756-3.4857,1.3333a59.3669,59.3669,0,1,1-109.2059-44.1028A153.154,153.154,0,0,1,127.1756,186.1079Z" transform="translate(0 0)" style="fill:#fff"/><path d="M463.5574,118.7q58.4385,0,89.7622,53.6074,13.7109,24.936,13.7139,50.4912v2.4941q0,61.8678-56.1016,93.502a103.9154,103.9154,0,0,1-46.7514,11.2207h-1.2466q-46.7513,0-75.4253-35.5312h-.6235l.6235,59.2187v34.2842l-1.2466,1.2461H363.198q-1.87-.624-1.87-3.74v-256.82q.4673-3.74,1.87-3.7392h22.4405l1.2466,1.2461V154.23h.6235Q418.2073,118.6985,463.5574,118.7ZM386.8851,224.0452q0,39.8951,34.2841,67.3222,20.7239,13.7139,42.3882,13.7129,39.8915,0,64.2051-37.4,11.841-20.8813,11.8433-43.0117,0-30.3882-25.5572-60.4648-22.9078-20.5709-51.7383-20.57-37.09,0-62.3349,36.7773Q386.8847,203.3191,386.8851,224.0452Z" transform="translate(0 0)" style="fill:#fff"/><path d="M684.2229,119.1663q64.0489,0,92.2559,66.6982,7.481,24.1583,7.4805,45.5049l-1.87,1.2471H605.6809c-.833,0-1.2465.623-1.2465,1.87q0,27.2724,27.4272,54.2314,21.5054,16.83,47.375,16.83,45.6593,0,68.5684-44.2578h27.4267l1.2471,1.2471v.623q-15.2739,39.7383-54.2314,58.5947a102.3967,102.3967,0,0,1-41.7647,8.7276q-52.9856,0-86.6455-47.375a117.1228,117.1228,0,0,1-17.4536-61.7119q0-48.7749,42.3877-84.1524Q647.6,119.1672,684.2229,119.1663Zm-78.542,90.3857.6231.624H752.7913l1.2471-1.247q-1.4034-17.1417-19.3242-41.1416-21.3516-24.3107-54.8545-24.3106-51.5838,0-71.0621,51.1153Q605.6784,203.321,605.6809,209.552Z" transform="translate(0 0)" style="fill:#fff"/><path d="M899.2786,118.2317h.6231q43.0122,0,72.9326,34.2842h.623V128.2053q.4673-3.7411,1.87-3.74h22.4405l1.247,1.2461V387.5188l-1.247,1.2471H974.7044l-1.87-1.87.623-44.8819V295.886h-.623q-27.4307,33.6606-75.4258,33.6611h-.6231q-56.4154,0-89.7627-51.7383-13.7152-26.9589-13.7138-53.6074,0-49.5572,41.7646-85.3994Q863.2777,118.2312,899.2786,118.2317ZM821.36,224.8245q0,41.2983,34.9082,67.3213,19.9452,12.47,41.1406,12.4677,38.8037,0,63.582-37.4013,12.4659-20.7246,12.4668-41.1416v-4.9864q0-37.0869-35.5312-65.4521-20.4171-12.4659-39.8936-12.4668-35.6895,0-57.9717,28.0508Q821.3593,197.554,821.36,224.8245Z" transform="translate(0 0)" style="fill:#fdfefe"/><path d="M1037.6624,232.6165h176.4082l1.87-1.2471q0-21.3486-7.4805-45.5049-13.3517-31.5692-34.7365-48.1883c-13.4231-16.2058-33.91-23.7407-33.91-23.7407-28.448-10.0735-54.3316-25.8229-54.3316-25.8229-43.0788-26.8821-46.8017-38.647-46.8017-38.647,11.5,46.5,42.8584,68.734,42.8584,68.734,2.0207,1.51,3.995,2.8469,5.895,4.0356a115.8372,115.8372,0,0,0-36.6817,15.0082q-42.39,35.3775-42.3877,84.1524a117.1234,117.1234,0,0,0,17.4541,61.7119q33.6608,47.376,86.6456,47.375a102.3959,102.3959,0,0,0,41.7646-8.7276q38.9575-18.854,54.2314-58.5947v-.623l-1.247-1.2471h-27.4268q-22.9086,44.26-68.5683,44.2578-25.8707,0-47.375-16.83-27.4293-26.9589-27.4278-54.2314Q1036.4153,232.616,1037.6624,232.6165Zm3.1162-38.0244q19.4794-51.1128,71.0625-51.1153,33.5038,0,54.8545,24.3106,17.9195,24.0014,19.3242,41.1416l-1.2471,1.247H1038.2854l-.623-.624Q1037.6624,203.3221,1040.7786,194.5921Z" transform="translate(0 0)" style="fill:#fff"/></svg>